<svg xmlns="http://www.w3.org/2000/svg">

<!-- commerce -->
<svg id="commerce1" viewBox="0 0 50 50">
    <path d="M14.06 22.67C14.0586 24.2188 14.4399 25.744 15.17 27.11C18.1529 26.9737 20.9686 25.6933 23.0321 23.5349C25.0955 21.3765 26.248 18.506 26.25 15.52C26.2466 14.8494 26.1863 14.1804 26.07 13.52C24.6623 13.1276 23.1828 13.0667 21.7476 13.342C20.3124 13.6174 18.9605 14.2215 17.7979 15.107C16.6354 15.9924 15.6938 17.1352 15.047 18.4457C14.4002 19.7561 14.0658 21.1986 14.07 22.66L14.06 22.67Z" fill="#A445BB"/>
    <path d="M23.55 9.00005H24.22C23.1963 7.50694 21.8373 6.27416 20.2518 5.40034C18.6663 4.52653 16.8983 4.03593 15.0892 3.96781C13.2802 3.89969 11.4803 4.25593 9.83354 5.00804C8.18681 5.76015 6.73898 6.88723 5.60588 8.29913C4.47278 9.71102 3.68586 11.3685 3.3081 13.139C2.93033 14.9095 2.9722 16.7439 3.43035 18.4953C3.88851 20.2467 4.75023 21.8666 5.94657 23.2253C7.14291 24.584 8.64066 25.6439 10.32 26.32C9.99846 25.1401 9.83371 23.923 9.82999 22.7C9.84056 19.0664 11.2901 15.5848 13.8614 13.0173C16.4327 10.4498 19.9163 9.00532 23.55 9.00005Z" fill="#D15187"/>
    <path d="M24.22 9H23.55C19.9215 9.00523 16.4423 10.4456 13.8719 13.0066C11.3015 15.5677 9.84847 19.0415 9.82999 22.67C9.83371 23.8929 9.99846 25.1101 10.32 26.29C10.9043 28.4324 12.001 30.4005 13.5155 32.0245C15.0299 33.6486 16.9168 34.8798 19.0132 35.6121C21.1096 36.3444 23.3527 36.5557 25.549 36.2278C27.7453 35.8999 29.8289 35.0427 31.62 33.73L43.62 45.73C43.8524 45.9614 44.167 46.0914 44.495 46.0914C44.823 46.0914 45.1376 45.9614 45.37 45.73L46.61 44.49C46.8414 44.2576 46.9714 43.943 46.9714 43.615C46.9714 43.287 46.8414 42.9724 46.61 42.74L34.61 30.74C36.0653 28.7445 36.9536 26.3924 37.1808 23.9331C37.408 21.4737 36.9657 18.9987 35.9007 16.7703C34.8357 14.5419 33.1877 12.6432 31.1313 11.2752C29.075 9.90725 26.6868 9.12108 24.22 9ZM23.55 32.19C21.8313 32.1935 20.144 31.7302 18.6681 30.8496C17.1922 29.969 15.9831 28.7041 15.17 27.19C14.4398 25.8241 14.0585 24.2988 14.06 22.75C14.0558 21.2886 14.3902 19.8461 15.0369 18.5357C15.6837 17.2252 16.6254 16.0825 17.7879 15.197C18.9505 14.3115 20.3024 13.7074 21.7376 13.432C23.1728 13.1567 24.6523 13.2176 26.06 13.61C28.2811 14.2118 30.2074 15.6009 31.4798 17.5183C32.7522 19.4357 33.2837 21.7504 32.9753 24.0308C32.6668 26.3112 31.5394 28.4016 29.8034 29.912C28.0673 31.4225 25.8411 32.2499 23.54 32.24L23.55 32.19Z" fill="#6F00FF"/>
</svg>

<svg id="commerce2" viewBox="0 0 50 50">
    <g style="mix-blend-mode:multiply">
    <path d="M32.85 24.63C31.977 25.9067 30.8057 26.9511 29.4378 27.6729C28.0699 28.3946 26.5466 28.7718 25 28.7718C23.4534 28.7718 21.9301 28.3946 20.5622 27.6729C19.1943 26.9511 18.0231 25.9067 17.15 24.63C15.3655 25.8835 13.9094 27.5486 12.905 29.4843C11.9006 31.42 11.3775 33.5692 11.38 35.75V46.88H38.62V35.75C38.6225 33.5692 38.0994 31.42 37.095 29.4843C36.0906 27.5486 34.6345 25.8835 32.85 24.63Z" fill="#6F00FF"/>
    </g>
    <g style="mix-blend-mode:multiply">
    <path d="M32.85 24.63C33.827 23.2013 34.3956 21.5331 34.4945 19.8051C34.5933 18.0771 34.2187 16.3548 33.411 14.824C32.6034 13.2932 31.3932 12.0118 29.911 11.118C28.4288 10.2242 26.7308 9.75183 25 9.75183C23.2692 9.75183 21.5711 10.2242 20.089 11.118C18.6068 12.0118 17.3966 13.2932 16.5889 14.824C15.7813 16.3548 15.4067 18.0771 15.5055 19.8051C15.6044 21.5331 16.173 23.2013 17.15 24.63C19.4442 23.003 22.1874 22.129 25 22.129C27.8126 22.129 30.5557 23.003 32.85 24.63Z" fill="#D15187"/>
    </g>
    <path d="M25 28.77C26.5465 28.7702 28.0697 28.3933 29.4376 27.6719C30.8055 26.9505 31.9768 25.9064 32.85 24.63C30.5558 23.003 27.8126 22.129 25 22.129C22.1874 22.129 19.4443 23.003 17.15 24.63C18.0233 25.9064 19.1946 26.9505 20.5625 27.6719C21.9304 28.3933 23.4536 28.7702 25 28.77Z" fill="#A445BB"/>
    <path d="M7.75 18.79L11.84 19.25L7.75 19.72V18.79Z" fill="#6F2CFF"/>
    <path d="M25.46 2.01001L25 6.09001L24.54 2.01001H25.46Z" fill="#6F2CFF"/>
    <path d="M42.25 19.72L38.16 19.25L42.25 18.79V19.72Z" fill="#6F2CFF"/>
</svg>

<svg id="commerce3" viewBox="0 0 50 50">
    <path d="M33 26.07L36.9 30C36.9994 30.1004 37.1178 30.1801 37.2483 30.2345C37.3787 30.2889 37.5186 30.3169 37.66 30.3169C37.8013 30.3169 37.9412 30.2889 38.0716 30.2345C38.2021 30.1801 38.3205 30.1004 38.42 30L41.18 27.24V13C41.1813 12.7874 41.1193 12.5792 41.0018 12.402C40.8843 12.2248 40.7167 12.0866 40.5204 12.005C40.324 11.9235 40.1078 11.9023 39.8993 11.9442C39.6909 11.986 39.4996 12.089 39.35 12.24L28.47 23.15C28.3705 23.2504 28.2521 23.3301 28.1216 23.3845C27.9912 23.4389 27.8513 23.4669 27.71 23.4669C27.5686 23.4669 27.4287 23.4389 27.2983 23.3845C27.1678 23.3301 27.0494 23.2504 26.95 23.15L20.62 16.82C20.5205 16.7197 20.4021 16.64 20.2716 16.5856C20.1412 16.5312 20.0013 16.5032 19.86 16.5032C19.7186 16.5032 19.5787 16.5312 19.4483 16.5856C19.3178 16.64 19.1994 16.7197 19.1 16.82L3.35995 32.69C3.21236 32.8402 3.11236 33.0306 3.07247 33.2374C3.03259 33.4441 3.05459 33.6581 3.13573 33.8524C3.21687 34.0467 3.35353 34.2127 3.52861 34.3297C3.70369 34.4467 3.90939 34.5094 4.11995 34.51H23.12L31.49 26.07C31.6905 25.8704 31.962 25.7583 32.245 25.7583C32.528 25.7583 32.7994 25.8704 33 26.07Z" fill="#6F00FF"/>
    <path d="M45.12 23.26L41.18 27.21V33.43C41.18 33.7138 41.0672 33.9859 40.8666 34.1866C40.6659 34.3873 40.3938 34.5 40.11 34.5H23.11L21.42 36.21C21.269 36.3597 21.1659 36.5509 21.1241 36.7594C21.0822 36.9678 21.1034 37.184 21.185 37.3804C21.2665 37.5768 21.4047 37.7444 21.5819 37.8619C21.7592 37.9793 21.9674 38.0413 22.18 38.04H45.88C46.0222 38.0467 46.1642 38.025 46.2979 37.9761C46.4316 37.9272 46.5541 37.8521 46.6584 37.7553C46.7627 37.6584 46.8467 37.5417 46.9053 37.412C46.964 37.2824 46.9961 37.1423 47 37V24C47.0087 23.7782 46.9481 23.5591 46.8268 23.3733C46.7054 23.1874 46.5293 23.0438 46.3227 22.9625C46.1161 22.8812 45.8894 22.8662 45.6739 22.9195C45.4584 22.9728 45.2648 23.0918 45.12 23.26Z" fill="#D15187"/>
    <path d="M41.18 33.43V27.21L38.42 30C38.3205 30.1004 38.2021 30.18 38.0717 30.2344C37.9412 30.2888 37.8013 30.3168 37.66 30.3168C37.5187 30.3168 37.3787 30.2888 37.2483 30.2344C37.1178 30.18 36.9995 30.1004 36.9 30L33 26.07C32.9005 25.9696 32.7821 25.8899 32.6517 25.8355C32.5212 25.7812 32.3813 25.7532 32.24 25.7532C32.0987 25.7532 31.9587 25.7812 31.8283 25.8355C31.6978 25.8899 31.5795 25.9696 31.48 26.07L23.11 34.51H40.11C40.2513 34.51 40.3913 34.482 40.5218 34.4276C40.6523 34.3732 40.7707 34.2935 40.8701 34.1931C40.9696 34.0926 41.0482 33.9735 41.1014 33.8425C41.1546 33.7116 41.1813 33.5713 41.18 33.43Z" fill="#A445BB"/>
</svg>

<!-- what -->
<svg id="what1" viewBox="0 0 50 50">
    <path d="M32.4 24.14L36.16 20.37L26.08 10.29C25.9387 10.1473 25.7705 10.034 25.5851 9.95672C25.3997 9.87941 25.2008 9.8396 25 9.8396C24.7991 9.8396 24.6003 9.87941 24.4149 9.95672C24.2295 10.034 24.0613 10.1473 23.92 10.29L13.84 20.37L17.6 24.14C17.7137 24.2525 17.8039 24.3865 17.8655 24.5341C17.9271 24.6817 17.9588 24.8401 17.9588 25C17.9588 25.16 17.9271 25.3183 17.8655 25.4659C17.8039 25.6136 17.7137 25.7475 17.6 25.86L13.84 29.63L23.92 39.71C24.0613 39.8527 24.2295 39.966 24.4149 40.0433C24.6003 40.1206 24.7991 40.1604 25 40.1604C25.2008 40.1604 25.3997 40.1206 25.5851 40.0433C25.7705 39.966 25.9387 39.8527 26.08 39.71L36.16 29.63L32.4 25.86C32.2863 25.7475 32.1961 25.6136 32.1345 25.4659C32.0729 25.3183 32.0412 25.16 32.0412 25C32.0412 24.8401 32.0729 24.6817 32.1345 24.5341C32.1961 24.3865 32.2863 24.2525 32.4 24.14Z" fill="#6F00FF"/>
    <path d="M47.82 24.14L41 17.29C40.8875 17.1763 40.7535 17.086 40.6059 17.0245C40.4583 16.9629 40.3 16.9312 40.14 16.9312C39.9801 16.9312 39.8217 16.9629 39.6741 17.0245C39.5265 17.086 39.3925 17.1763 39.28 17.29L36.19 20.37L39.74 23.92C39.8827 24.0613 39.996 24.2295 40.0733 24.4149C40.1506 24.6003 40.1904 24.7991 40.1904 25C40.1904 25.2008 40.1506 25.3997 40.0733 25.5851C39.996 25.7704 39.8827 25.9386 39.74 26.08L36.19 29.63L39.28 32.71C39.3925 32.8237 39.5265 32.9139 39.6741 32.9755C39.8217 33.0371 39.9801 33.0688 40.14 33.0688C40.3 33.0688 40.4583 33.0371 40.6059 32.9755C40.7535 32.9139 40.8875 32.8237 41 32.71L47.85 25.86C48.0708 25.6262 48.1913 25.3153 48.1857 24.9939C48.1801 24.6724 48.0488 24.3659 47.82 24.14Z" fill="#D15187"/>
    <path d="M39.71 23.9201L36.16 20.3701L32.4 24.1401C32.2863 24.2526 32.1961 24.3866 32.1345 24.5342C32.0729 24.6818 32.0412 24.8402 32.0412 25.0001C32.0412 25.1601 32.0729 25.3184 32.1345 25.466C32.1961 25.6137 32.2863 25.7476 32.4 25.8601L36.16 29.6301L39.71 26.0801C39.8527 25.9388 39.966 25.7706 40.0433 25.5852C40.1206 25.3998 40.1604 25.201 40.1604 25.0001C40.1604 24.7993 40.1206 24.6004 40.0433 24.415C39.966 24.2297 39.8527 24.0614 39.71 23.9201Z" fill="#A445BB"/>
    <path d="M10.29 23.92L13.84 20.37L10.75 17.29C10.6375 17.1763 10.5035 17.086 10.3559 17.0245C10.2083 16.9629 10.05 16.9312 9.89 16.9312C9.73005 16.9312 9.57169 16.9629 9.42407 17.0245C9.27646 17.086 9.14252 17.1763 9.03 17.29L2.18 24.14C1.95523 24.3698 1.82938 24.6785 1.82938 25C1.82938 25.3214 1.95523 25.6301 2.18 25.86L9 32.71C9.11252 32.8237 9.24646 32.9139 9.39407 32.9755C9.54169 33.0371 9.70005 33.0688 9.86 33.0688C10.0199 33.0688 10.1783 33.0371 10.3259 32.9755C10.4735 32.9139 10.6075 32.8237 10.72 32.71L13.81 29.63L10.26 26.08C10.1192 25.9367 10.0083 25.7669 9.93353 25.5804C9.85878 25.394 9.82173 25.1946 9.82452 24.9937C9.82731 24.7929 9.86988 24.5946 9.94978 24.4103C10.0297 24.226 10.1453 24.0593 10.29 23.92Z" fill="#D15187"/>
    <path d="M17.6 24.1401L13.84 20.3701L10.29 23.9201C10.1473 24.0614 10.034 24.2297 9.95669 24.415C9.87937 24.6004 9.83957 24.7993 9.83957 25.0001C9.83957 25.201 9.87937 25.3998 9.95669 25.5852C10.034 25.7706 10.1473 25.9388 10.29 26.0801L13.84 29.6301L17.6 25.8601C17.7137 25.7476 17.8039 25.6137 17.8655 25.466C17.9271 25.3184 17.9588 25.1601 17.9588 25.0001C17.9588 24.8402 17.9271 24.6818 17.8655 24.5342C17.8039 24.3866 17.7137 24.2526 17.6 24.1401Z" fill="#A445BB"/>
</svg>

<svg id="what2" viewBox="0 0 50 50">
    <path d="M30.46 13.6699H11.71C11.4869 13.666 11.2652 13.7065 11.0579 13.7891C10.8506 13.8718 10.6618 13.9949 10.5026 14.1513C10.3434 14.3077 10.217 14.4942 10.1307 14.7C10.0444 14.9058 9.99996 15.1268 10 15.3499V39.0799C9.99999 39.5238 10.1756 39.9496 10.4885 40.2644C10.8014 40.5791 11.2262 40.7573 11.67 40.7599H35.44C35.8856 40.7599 36.3129 40.5829 36.6279 40.2679C36.943 39.9528 37.12 39.5255 37.12 39.0799V20.3299C35.3537 20.3299 33.6597 19.6283 32.4107 18.3793C31.1617 17.1303 30.46 15.4363 30.46 13.6699Z" fill="#6F2CFF"/>
    <path d="M37.12 7.00001C35.3537 7.00001 33.6597 7.70168 32.4107 8.95068C31.1617 10.1997 30.46 11.8937 30.46 13.66H35.46C35.9056 13.66 36.3329 13.837 36.648 14.1521C36.963 14.4671 37.14 14.8944 37.14 15.34V20.34C38.909 20.3374 40.6045 19.6321 41.8535 18.3793C43.1025 17.1266 43.8027 15.429 43.8 13.66C43.7974 11.891 43.0921 10.1955 41.8394 8.94653C40.5866 7.69754 38.889 6.99736 37.12 7.00001Z" fill="#D15187"/>
    <path d="M35.44 13.6699H30.44C30.44 15.4363 31.1417 17.1303 32.3907 18.3793C33.6397 19.6282 35.3337 20.3299 37.1 20.3299V15.3299C37.0948 14.8913 36.9183 14.4721 36.6081 14.1619C36.2979 13.8517 35.8786 13.6751 35.44 13.6699Z" fill="#A445BB"/>
</svg>

<svg id="what3" viewBox="0 0 50 50">
    <path d="M25 16.0001C28.2972 16.0001 30.97 13.3272 30.97 10.0301C30.97 6.73292 28.2972 4.06006 25 4.06006C21.7029 4.06006 19.03 6.73292 19.03 10.0301C19.03 13.3272 21.7029 16.0001 25 16.0001Z" fill="#A445BB"/>
    <path d="M12.0399 23.49C15.3371 23.49 18.0099 20.8172 18.0099 17.52C18.0099 14.2229 15.3371 11.55 12.0399 11.55C8.74281 11.55 6.06995 14.2229 6.06995 17.52C6.06995 20.8172 8.74281 23.49 12.0399 23.49Z" fill="#6F2CFF"/>
    <path d="M12.0399 38.45C15.3371 38.45 18.0099 35.7771 18.0099 32.48C18.0099 29.1829 15.3371 26.51 12.0399 26.51C8.74281 26.51 6.06995 29.1829 6.06995 32.48C6.06995 35.7771 8.74281 38.45 12.0399 38.45Z" fill="#A445BB"/>
    <path d="M25 45.94C28.2972 45.94 30.97 43.2671 30.97 39.97C30.97 36.6729 28.2972 34 25 34C21.7029 34 19.03 36.6729 19.03 39.97C19.03 43.2671 21.7029 45.94 25 45.94Z" fill="#6F2CFF"/>
    <path d="M37.96 38.45C41.2571 38.45 43.93 35.7771 43.93 32.48C43.93 29.1829 41.2571 26.51 37.96 26.51C34.6628 26.51 31.99 29.1829 31.99 32.48C31.99 35.7771 34.6628 38.45 37.96 38.45Z" fill="#A445BB"/>
    <path d="M37.96 23.49C41.2571 23.49 43.93 20.8172 43.93 17.52C43.93 14.2229 41.2571 11.55 37.96 11.55C34.6628 11.55 31.99 14.2229 31.99 17.52C31.99 20.8172 34.6628 23.49 37.96 23.49Z" fill="#6F2CFF"/>
    <path d="M25 28.9101C27.1594 28.9101 28.91 27.1595 28.91 25.0001C28.91 22.8407 27.1594 21.0901 25 21.0901C22.8405 21.0901 21.09 22.8407 21.09 25.0001C21.09 27.1595 22.8405 28.9101 25 28.9101Z" fill="#D15187"/>
</svg>

<svg id="what4" viewBox="0 0 50 50">
    <path d="M14.06 22.67C14.0586 24.2188 14.4399 25.744 15.17 27.11C18.1529 26.9737 20.9686 25.6933 23.0321 23.5349C25.0955 21.3765 26.248 18.506 26.25 15.52C26.2466 14.8494 26.1863 14.1804 26.07 13.52C24.6623 13.1276 23.1828 13.0667 21.7476 13.342C20.3124 13.6174 18.9605 14.2215 17.7979 15.107C16.6354 15.9924 15.6938 17.1352 15.047 18.4457C14.4002 19.7561 14.0658 21.1986 14.07 22.66L14.06 22.67Z" fill="#A445BB"/>
    <path d="M23.55 8.99992H24.22C23.1963 7.50682 21.8373 6.27404 20.2518 5.40022C18.6663 4.5264 16.8983 4.03581 15.0892 3.96769C13.2802 3.89957 11.4803 4.25581 9.83354 5.00792C8.18681 5.76002 6.73898 6.88711 5.60588 8.29901C4.47278 9.7109 3.68586 11.3684 3.3081 13.1389C2.93033 14.9094 2.9722 16.7437 3.43035 18.4951C3.88851 20.2466 4.75023 21.8664 5.94657 23.2252C7.14291 24.5839 8.64066 25.6437 10.32 26.3199C9.99846 25.14 9.83371 23.9229 9.82999 22.6999C9.84056 19.0662 11.2901 15.5847 13.8614 13.0172C16.4327 10.4496 19.9163 9.0052 23.55 8.99992Z" fill="#D15187"/>
    <path d="M24.22 9H23.55C19.9215 9.00523 16.4423 10.4456 13.8719 13.0066C11.3015 15.5677 9.84847 19.0415 9.82999 22.67C9.83371 23.8929 9.99846 25.1101 10.32 26.29C10.9043 28.4324 12.001 30.4005 13.5155 32.0245C15.0299 33.6486 16.9168 34.8798 19.0132 35.6121C21.1096 36.3444 23.3527 36.5557 25.549 36.2278C27.7453 35.8999 29.8289 35.0427 31.62 33.73L43.62 45.73C43.8524 45.9614 44.167 46.0914 44.495 46.0914C44.823 46.0914 45.1376 45.9614 45.37 45.73L46.61 44.49C46.8414 44.2576 46.9714 43.943 46.9714 43.615C46.9714 43.287 46.8414 42.9724 46.61 42.74L34.61 30.74C36.0653 28.7445 36.9536 26.3924 37.1808 23.9331C37.408 21.4737 36.9657 18.9987 35.9007 16.7703C34.8357 14.5419 33.1877 12.6432 31.1313 11.2752C29.075 9.90725 26.6868 9.12108 24.22 9ZM23.55 32.19C21.8313 32.1935 20.144 31.7302 18.6681 30.8496C17.1922 29.969 15.9831 28.7041 15.17 27.19C14.4398 25.8241 14.0585 24.2988 14.06 22.75C14.0558 21.2886 14.3902 19.8461 15.0369 18.5357C15.6837 17.2252 16.6254 16.0825 17.7879 15.197C18.9505 14.3115 20.3024 13.7074 21.7376 13.432C23.1728 13.1567 24.6523 13.2176 26.06 13.61C28.2811 14.2118 30.2074 15.6009 31.4798 17.5183C32.7522 19.4357 33.2837 21.7504 32.9753 24.0308C32.6668 26.3112 31.5394 28.4016 29.8034 29.912C28.0673 31.4225 25.8411 32.2499 23.54 32.24L23.55 32.19Z" fill="#6F00FF"/>
</svg>

<svg id="what5" viewBox="0 0 50 50">
    <path d="M37.12 10.8899H12.88C11.781 10.8899 10.89 11.7808 10.89 12.8799V37.1199C10.89 38.2189 11.781 39.1099 12.88 39.1099H37.12C38.2191 39.1099 39.11 38.2189 39.11 37.1199V12.8799C39.11 11.7808 38.2191 10.8899 37.12 10.8899Z" fill="#6F2CFF"/>
    <path d="M39.11 25H43.12" stroke="#6F2CFF" stroke-width="2.78" stroke-miterlimit="10" stroke-linecap="round"/>
    <path d="M39.11 31.5601H43.12" stroke="#6F2CFF" stroke-width="2.78" stroke-miterlimit="10" stroke-linecap="round"/>
    <path d="M39.11 18.4399H43.12" stroke="#6F2CFF" stroke-width="2.78" stroke-miterlimit="10" stroke-linecap="round"/>
    <path d="M6.88 25H10.89" stroke="#6F2CFF" stroke-width="2.78" stroke-miterlimit="10" stroke-linecap="round"/>
    <path d="M6.88 31.5601H10.89" stroke="#6F2CFF" stroke-width="2.78" stroke-miterlimit="10" stroke-linecap="round"/>
    <path d="M6.88 18.4399H10.89" stroke="#6F2CFF" stroke-width="2.78" stroke-miterlimit="10" stroke-linecap="round"/>
    <path d="M25 10.8899V6.87988" stroke="#6F2CFF" stroke-width="2.78" stroke-miterlimit="10" stroke-linecap="round"/>
    <path d="M31.16 10.8899V6.87988" stroke="#6F2CFF" stroke-width="2.78" stroke-miterlimit="10" stroke-linecap="round"/>
    <path d="M18.84 10.8899V6.87988" stroke="#6F2CFF" stroke-width="2.78" stroke-miterlimit="10" stroke-linecap="round"/>
    <path d="M25 43.1201V39.1101" stroke="#6F2CFF" stroke-width="2.78" stroke-miterlimit="10" stroke-linecap="round"/>
    <path d="M31.16 43.1201V39.1101" stroke="#6F2CFF" stroke-width="2.78" stroke-miterlimit="10" stroke-linecap="round"/>
    <path d="M18.84 43.1201V39.1101" stroke="#6F2CFF" stroke-width="2.78" stroke-miterlimit="10" stroke-linecap="round"/>
    <path d="M26.88 23.1101H23.11V26.8801H26.88V23.1101Z" fill="#D15187"/>
    <path d="M33.04 23.1101H29.27V26.8801H33.04V23.1101Z" fill="#D15187"/>
    <path d="M20.72 23.1101H16.95V26.8801H20.72V23.1101Z" fill="#D15187"/>
    <path d="M26.88 16.5601H23.11V20.3301H26.88V16.5601Z" fill="#D15187"/>
    <path d="M33.04 16.5601H29.27V20.3301H33.04V16.5601Z" fill="#D15187"/>
    <path d="M20.72 16.5601H16.95V20.3301H20.72V16.5601Z" fill="#D15187"/>
    <path d="M26.88 29.6699H23.11V33.4399H26.88V29.6699Z" fill="#D15187"/>
    <path d="M33.04 29.6699H29.27V33.4399H33.04V29.6699Z" fill="#D15187"/>
    <path d="M20.72 29.6699H16.95V33.4399H20.72V29.6699Z" fill="#D15187"/>
</svg>

<svg id="what6" viewBox="0 0 50 50">
    <path d="M26.23 13.8299L41.37 21.8299L43 20.9999C43.4225 20.7748 43.7758 20.4391 44.0222 20.0287C44.2686 19.6183 44.3987 19.1486 44.3987 18.6699C44.3987 18.1912 44.2686 17.7215 44.0222 17.3111C43.7758 16.9007 43.4225 16.565 43 16.3399L26.23 7.50991C25.85 7.31267 25.4281 7.20972 25 7.20972C24.5719 7.20972 24.15 7.31267 23.77 7.50991L7.05 16.3499C6.62751 16.575 6.27417 16.9107 6.02779 17.3211C5.7814 17.7315 5.65125 18.2012 5.65125 18.6799C5.65125 19.1586 5.7814 19.6283 6.02779 20.0387C6.27417 20.4491 6.62751 20.7848 7.05 21.0099L8.63 21.8399L23.77 13.8399C24.1492 13.6411 24.5706 13.5365 24.9988 13.5347C25.4269 13.533 25.8492 13.6342 26.23 13.8299Z" fill="#6F2CFF"/>
    <path d="M23.77 36.1699L8.63 28.1699L7.05 28.9999C6.62751 29.225 6.27417 29.5607 6.02779 29.9711C5.7814 30.3815 5.65125 30.8512 5.65125 31.3299C5.65125 31.8086 5.7814 32.2783 6.02779 32.6887C6.27417 33.0991 6.62751 33.4349 7.05 33.6599L23.77 42.4999C24.15 42.6972 24.5719 42.8001 25 42.8001C25.4281 42.8001 25.85 42.6972 26.23 42.4999L43 33.6499C43.42 33.424 43.771 33.0886 44.0156 32.6792C44.2602 32.2698 44.3894 31.8018 44.3894 31.3249C44.3894 30.848 44.2602 30.38 44.0156 29.9707C43.771 29.5613 43.42 29.2258 43 28.9999L41.42 28.1699L26.28 36.1699C25.8937 36.3757 25.4627 36.4833 25.025 36.4833C24.5873 36.4833 24.1563 36.3757 23.77 36.1699Z" fill="#6F2CFF"/>
    <path d="M43 22.6701L41.42 21.8401L35.42 25.0001L26.26 29.8401C25.8815 30.0423 25.4591 30.1481 25.03 30.1481C24.6009 30.1481 24.1784 30.0423 23.8 29.8401L14.61 25.0001L8.60998 21.8401L7.02998 22.6701C6.60749 22.8952 6.25415 23.2309 6.00777 23.6413C5.76138 24.0517 5.63123 24.5214 5.63123 25.0001C5.63123 25.4788 5.76138 25.9485 6.00777 26.3589C6.25415 26.7693 6.60749 27.105 7.02998 27.3301L8.60998 28.1601L23.75 36.1601C24.13 36.3573 24.5518 36.4603 24.98 36.4603C25.4081 36.4603 25.83 36.3573 26.21 36.1601L41.35 28.1601L43 27.3301C43.4225 27.105 43.7758 26.7693 44.0222 26.3589C44.2686 25.9485 44.3987 25.4788 44.3987 25.0001C44.3987 24.5214 44.2686 24.0517 44.0222 23.6413C43.7758 23.2309 43.4225 22.8952 43 22.6701Z" fill="#D15187"/>
    <path d="M26.23 13.83C25.85 13.6327 25.4281 13.5298 25 13.5298C24.5719 13.5298 24.15 13.6327 23.77 13.83L8.63 21.83L14.63 24.99L23.79 29.83C24.1685 30.0322 24.5909 30.138 25.02 30.138C25.4491 30.138 25.8716 30.0322 26.25 29.83L35.39 25L41.39 21.84L26.23 13.83Z" fill="#A445BB"/>
</svg>

<!-- trust -->
<svg id="arrow" viewBox="0 0 50 50">
    <path fill-rule="evenodd" clip-rule="evenodd" d="M37.068 47.0404C36.3023 47.8062 35.0607 47.8062 34.2951 47.0404L11.7647 24.5101L33.9484 2.32637C34.7142 1.56059 35.9556 1.56059 36.7214 2.32637C37.4871 3.09206 37.4871 4.33353 36.7214 5.09932L17.3106 24.5101L37.068 44.2675C37.8338 45.0332 37.8338 46.2747 37.068 47.0404Z"/>
</svg>



</svg>